<mxfile>
    <diagram id="9WVgZMxJ1RXWmVae-hD_" name="Page-1">
        <mxGraphModel dx="1951" dy="487" grid="1" gridSize="10" guides="1" tooltips="1" connect="1" arrows="1" fold="1" page="1" pageScale="1" pageWidth="827" pageHeight="1169" math="0" shadow="0">
            <root>
                <mxCell id="0"/>
                <mxCell id="1" parent="0"/>
                <mxCell id="4" value="getAllOperations" style="rounded=0;whiteSpace=wrap;html=1;" vertex="1" parent="1">
                    <mxGeometry x="-120" y="20" width="110" height="40" as="geometry"/>
                </mxCell>
                <mxCell id="7" value="" style="shape=image;verticalLabelPosition=bottom;labelBackgroundColor=#ffffff;verticalAlign=top;aspect=fixed;imageAspect=0;image=data:image/png,iVBORw0KGgoAAAANSUhEUgAAAZQAAAESCAIAAABVTrQyAAAgAElEQVR4Ae2dj0/b1trH3/9jki+pX7j1lJEy3NFm3Cb8yEob2lIo6cuPRZARsqhkpJCITOkF2mUZAbIsZZCpsA6xim4SVIJOgnslq1J4K1lvJWuVort/59U5tmMndkKSpuDgJ5qGMfbxcz7H+fZ5Hh8/578I+AABIAAEapDAf9WgzWAyEAACQIAA8YKbAAgAAU0QWCj8UbUPxEsVC+wEAkDgpAksLCx8UP+B8r+FhQVVU0C8VLHATiAABE6aAIhXtYgbrgZWUviTuN9hkLdKOyP8H1LzjgvyP2h9+9L4wkroJqV1MyX7LEuPX/525+/SjmO3Gsf/eLo+//GxxxU9wDL7+tfDv9B/SW9D0SM19se7wRdvv75JVsGq24l0Bn249WFZc+bZA7w3szdNV+Ei+U1kxevWY+HqT0brPqj/QPOel23jzo9rH+V3p8q/t3qXVkI361VaveCYX0mtLIxfyvub4er9lXzx4g+54IysKMXLQN/0PlhIrKRWEguh8avGvObe/6+0qln8dY1Xx32O1hwhfv8GFbyCdeyXv349fPWlhT+CvPrNm18P//p21CSd0fT5l98ELOekHcdufXhtPjh598NjjyvhAMvXr58qxOvcJ977a6+evPzr6YtXD7/+vLGEdqp8SGdy7eVvt9QF3XpnNnnHXI0L3k6kuU2XTLekRq2RA+79ixe3NVInhpAgXoh+QfEy9j5IBLy+pYgrT73KEy+D1buQSoScHZfoS1fH5xMrEdelE9aKYuIl3YBa2ELi9eT314+/7kbWnPs8+PvrtRdvc8TrVM1UEa9zvfef/fUkOX/VYv20d+nbF2+/n/zspG0sJl7Vs+WMiNffmj7/R+hfPT/9585P/3sjtGQSvSPD5UB75H/vbPznzg//6hy5LYr07bYf/vxs5Ku2+Ve9P/3Zu7DR3CT+hSAbbqxdW/6/Oxt/3vnh1bWJL3gP6G83fruz8R+H/L+FuWOddWPH+IMF5N9E7jucAblzVN/quD+/JPg+rg7e9zF0+BJCqCf+WPK2Zsea6n2QCN00dtxPRJy5/nBZ4lV/9X4iNe8UQ8lL4wupJS/2dFDANu9zBSJLiURiad53k5Y0TdVgbFq9PbSy5LVfdYUEX87bgZhRHa7A/MLSCnbvHnhv0jxIdLncz8r9q8JlaJcY6eaHjXmu4gXphJX58V7sRa4kFgIOmQhfuDqODULe5XygN0/uKRNNm6jsoGcZKzasY7+8XZxNfvtsyUIQDb0/P15OBp+J4mWOfs8Hboe5YWPTV9++fBUcj/7zl9dPX75dW4t2iD7Ih6MvhFgvJ2zsvf/7m2+XX6y9fPP9N4Hh7149ffnm28lu7MyRnwynHv7y+snLv359+XpxOdrRlGOjUrzO9f785PCP4U+Ewz4NvPr19yR2HJHb+HQt+eXyv9devHny7MXEzYtSW8a7Y9/9ew1f5fvv5i2SN07dWn67NvuFPfDb4xdvf3355vHsXXTjo+P/ePz726eHb588e3F/2Cq4ntdSTwQmOKQ9/Eu8OkEQvfd/53fmh43nzKquItkx++ZpMvo/3/zx+MXbpy/+/XX2KrzdZ0K8qM/bf/jPrVDgo4sXyY8+Mw0kP7mMe0d90fnjnzcmvjj/0cXztqVrP/15rZ93V2+3/fCfO8trpo9IwmCmQ/93J/SF8H1oClz76X87b3fXUxfrL95t7v88R6HKChsv9D5YScy7OmjjBasztJRKZSM72jGfWEKuzwXjhdbe+wsr83I1KuB5UTdDOAKstwcSkvbgfpYlXpdcSK2soi6hc1PzDnSzYmFJBG4ibaCs45GVBdElK2YwEq+VxMKD8Y4L9QYDRXd0YAm5cHPc1dvRSl8wXrhk90ZWlnzZSxJEMc9LmfMyWL1LqaVAb+sFTFJyFbHaLQkGX72/JEXICFYi5LReMBov0Fa782aueFlRWiSdsEvf3UJbWLzGu/9n7dX9TpP9u9df3707kRUv/iRlzqvpq28Pke/z6d8J4u+9E7+8fRzI8X0UOS/0rf4+0PvxzdTjw7ffjn/28d2f116kOpAekB3jyeHe3k8/udj4Se/w8uunawF5GKgUL16tOsQOnev9+enhH/+DJI+PeV8FsWY19v689lLUuHPdyMjvvuowX2w09w4nXz9JesWrIPF6+uLVt4G7H/+dPGe0Xr35GbLrE++Xga+uWqyNTeZPe5Pfv3x9/5rs34Jinpci53UOdf/xd19ZPrn48bX5hy/efi/gQuL16+Gr+zcvniPIj4d/e/JyKycUrYZ42YW8GZ8mE/7PbcqTaCJK/qc851WFsLF+4OWdH9Y+Er+O2WsZbv9258cNk7Cf/PDLV3cEdwmJl31AiLsNN36780NSyED8I9mzsfuJ6LhlmxI2yhGvC85IamFcTN6g75kgXgarbykRsGeTWlTvg5WIS/Kl1MULfR35o4y9D6RvKTasHPEyWH2J1IIs8ETKwP8uOGFCX5FZvONX3OB6eyiVyvcF88ChtuTXLEu8DB33E7IU/gXnPHIV0RUQ1GwGEPmtWS8OXUARXUtGlSte5sbh3x5/l/rns5/tf+8uTbzeBMWc9Kdfv3qa9MozXGrihb/8577458tXX5oJAvluv92R3B/RdCQKW7cEJwftVIgX2fHNm1+fRUXHiyA6k2tCzg6Ll+TxIV3+ftJKEETD3a2nvyexVuILmee/f/kC6x1yoW8t//XrL/NSg6Itsp+mO8lcgS5HvM7d/PmJrLMfj/8hOmtYvNZFsf679+HL1xOdsstWQ7xIk9Vqy/tYrXThB0bVFS/SFPjzTuiLv8l6xW+eH3t1JzKXFQkkUj/xWobDxuy/FNe2pDS8ofvTyJ93fvxXVyD5af8X5/P6UIZ4GTrur8jy7uixoCBeFxzzuYFTKpVKyPwSVfFC/pYYQ6Is/APsKwldrp54rTzoFbuMxQA/OChuMPK8Er7cR50EQRho+3gosiQ8C02lRMHBJpclXugxxcJ4NnxGWpbi40raJQdh9S6tBOzCP1V0byiRWll4EPCNO2+2GhX/sClulgI7eM/rImH0Pnz515PvPj9HfFaSePEahBv9ZPLfee6Sqnihr+W5z//58t9jnxD4coJ8fNgZ+HodZd+FePMwR9TUxeuXguL1dPlzUfpI5FJ9d/ccQXz69Sux8exVss8okOf15Ju7+XzOWW99/dv3v7/NnrjGpwX548oRL0Tj2dKn2Qvc/PmJEIbjsHH5C8FgBOdNMPutJQiiGuKVvWypGyckXh8WFa/OLAa5eKEuUA3/+IIeWeta/tPxw4YpK34EQVRLvFSeGErs1MSr/mogNx228qBX+ne5HPEiioaNMlHEGThRvIoYzOe8stoi9OOSa2Fl6X6vIBv1N1FeTDqmmuKV5ZAjXgRB1F9ovdrr9AYiiRTKFUqAy9kSxYugPr371VUzSZyceOFYz/jFP1+8XcQhGzIbhagv5B6ZQryI4mHj06wWYJcqK15Psw5OPh0+54WfV8j+9Gng1dNnP9+xXMTKQt1Jvl2blR1TO+JVk2Hjn4XFSxyj+i+7fvq/tjZZKG/bEH038ZjCP4WwUTggN2xMrPBZJtWzW8fRVAnRAcKHGK6iyKn30gX+Q9vv5xyCnaSAmPeWN4q8lryQrmjCPiX5UMjfyoaNRQxWFS8cJ0pTOlr5pwJZyy44kVniM4PsbryhyHnxnc8C4cNGFO2gsFEm4vniJTaLz5eF6Wg/StjTJSfsx2WJ7RMWr1wV+HD4t6eHOeKFYtK1r+QxafGE/a/PoqKP0z3x7C8pbHyxdUtd31XFy3Rn7e3jr7OJPNRUrngVmfuWn/MqHjZKavt+PK9TDhsJAiXs/xQT9taPbn/bzN9tsoR9A5+wF/JcKGxUF6/LX1kGvviw6SJJmY39v/X89DIn/3Xx2xsbr9psF/9mkCma+CXJ/4kT9g9cHSgr7wgtrYg5L5Svnl9JzHvtKANNt17tHb/vkmWzUU4Lpc3rDQYDH+5gcZICOoLI+z4T/Cm9l4wURdXLQySU616JjHdcMEp/KDhVAifsV+bHr9LoOUJgCeWT+MaKGawqXvi68078uLL+kvNBIjdsrLcHVlYeOC5R2S5K8BTiRdRbfUsp5MYJCftsKrGweNE3Xa6bVtpIUcZLN+8v5CT5CIIoN+d1euKFkl+vgzfRtLJzTZ8Hn739NVe8Gnq3nrx8MdZp/tBoauDjq4JTJfiE/ZtvJ+9+3GTumHzxRJ6wf/b2yVrUbjE3fvKZpTdw/5uAqHGq4kV2zL5+ujb/Cboi9en4iyeHueKFzH7zz2FzwzlSCPqkAc4XLyI/Yf/X44DwpBU9bcy6iu9HvCS7StyqbtiILpozVeKB2lSJH//12dhdUXIKi1fTl+3z/+r58U/Hxp89C7/9w5Y3mc700djurR/xnIkSp0osyaZKSJkhqtXhw9NEUytLC/OB8atyL6S+1RlA0w7ERBFKmOelxFH6fkXmTRjo3vsRHFhmc9bCWFAd4w/4zJPkgQkzD1LCJFXx2kg2How7fBE0hSNvqkRhg1XFCz2udIYW0JSLhcgD701XbthI8PbiLooG48R/bjJwScx0GeibvgdLCWzwA69dPlVCCp/lnpfxqjcUQVNRUBfRRA25oldJvHAmO3dagDAdDE+VQHl3/JHlvO4GX2STSvJJA733f8ep6Jycl/CI8OO7qcXf36C5Zus/D4+m8sJGgjDbZ//gM2IPh4Wps8LMg8O8SapIvJ4uR4eX8fzVvKkSTWjqwxqeDLH2ywvZHFpV8SIIY+/Y8qsnL96sPfv3w6+9X+aFjQRlGd/6/gXOiAkTNYjG8T+yCTJhQ3x6cM7sDa69fiIY/MXHguDpIOcl3CPa/pH/vE2L1ip9Hi1aCTZVSgCLF3rmcFY+ZyBhr9mhoFrtN600VW+ov3DVW/TRvTa6AOKljXF4X1acRfHCE7PYdYcYUxEEYZ7d49BubscnzT+qHlN52Mhf/clQTbzbWB4C6qp3Hod/OHTJBjvlNXKCR4N4nSDsU7jUmROvU2BIEFnxyquKo/l3G0+FFlwUCAABzRAA8dLMUIAhQAAIlEOgcCHV8osR+v3+ci4NxwIBIAAETo5AsUqqIF4nNw5wJSAABMokAOJVJjA4HAgAAW0Q0JJ40cOJHYblMsWqZmiDGlgBBIDAqRPQkHjZIkyGSdw2yeaVnDoeMAAIAAGtEtCOeJGOVRZ8Lq3eJ2AXENAcAS2J1zqIl+buDzAICGiWgIbEa3id43JeRtAsNDAMCACB0yegFfEiza71NLc3LdYLOH0yYAEQAAKaJqAF8TL5dvDbngcRe06dQE2DA+OAABA4XQJaEC9EgALP63RvBLg6EKg1AloRL4IgIedVazcP2AsETpOAhsTLAU8bT/NOgGsDgRojoCXxgnleNXbzgLlA4DQJaEe8CJhhf5o3AlwbCNQaAQ2JFyG92+iCV4Rq7UYCe4HASRPQkniddN/hekAACNQwARCvGh48MB0I6JkAiJeeRx/6DgRqmMDpi5fViteXr2GGYDoQAAKnQADE6xSgwyWBABB4dwIgXu/OEFoAAkDgFAjoTbzM03vc3mzB2hUmzzbHLNpPYSBO9ZL1lq34RLTlJGxo7B5lH/VcP4lLwTXOOAG9iZfJMbsacZgKjWp1xMvUtR8fddcXusjp7CfbhtjYQL/qxQ1NfnfPiFH1byXvNHbtJkOc7L9DV5Py5BzxMjTd8zp3H02xydCRt0Uxua9u0Del2oiyWdijQwJ6E69jhlin4nUMlRL/TF5ubuxssW3FQ7vOls7mRsv5OuWZOeJVT4fdPf7u9uU5EC8lKthzDAH9iBfNVw3LZDJ5YSNp9azupbkMl95bnV7cyQ8bSRNNmyiFV1CMq5rnRbXYUuFJNhlio96NoZZG4XzS7Q8y/r7lmQkmNnU05wybpSuRRnPU7z2Kh7j45K63vdOQvSblDwf3nWa3e+wwFuTiU/tO7OMYW6N+D9qTDB7NOaM2wWrqmlPuEKHtuS4L35ihdUPwlfLDxgIG1434g0e+Lr/Pw8SCbNSz3NaQNQttGMypeOh5d85O0mRJor4HmfCA3zmmCBsb7s2AeOVQhF9KIaAf8eJpKHJeJHqlMr09bTebrcOLe1wmk5vzwpUSufVhSVOOx2ps35gbGJSHjedbN2LBfXdrp5GytPXsxoPPe/i6i6TbH+KS3ijSrLrL3c6jmHPkPL5CvTkZndp1W66bqMvN5oczU4zXLNZqpPzhEBvzbvXRtKGOOt80eAWHfC225SFLf4uRNhqvdw8cxr0PmyVji4WNypxXQYOReHFxT9TcQBB1nX1jbNTRL6mqqng1PZwLMX7bdRNlaevbjYe4/JxXIfEibrm8z/tEnZe6AltAABHQvXjZE2nJFUMrGFVBvBS3FoqVYgOD4pf8umuCm7uBfR8sXoF28QtKL0eDvNtC94yxwjGoOdLcx8SHRoQWsHgF2mnFhWQ7jOG5rETiForkvBTiVdhgJF6s3yLIqLFrN+4Jy1OISs/L3Mcks8fU9XsnSxcvWXdgEwjkE9C7eFGe7Qy76hD9KtqnCBvziVXye6dzgg13XRZPRXFcnNcyHDa6sypE+WeCfIq63zuVH+slx/xCTh2FjYdOUfHEZon6xnvuURw2Conz/SEpCV+W51XYYBw2usXk+vn25/EJuX+nDBupa6Oc7EEBEuWSPa9sz2ADCCgJgHhtczLxMp2geOFoC4nXUVYLCORSMfghXb93ivW3inFi3sDhnJdMmPCf6/rdk+ycY6S5AUuxMRwOVle8sMGViBcbc2SfcjZ2g3jljSb8WiEBvYsXYU+kuR2fGPjYF5m8sJFACXv6HZfxLhyF4bAxbBNcL0NLMiYLG/PSSdIQq4oXihN3+0S5M7SkYqFc8RpgBXdPakjYKjNslNS2BM+LQAHv6D0+kUcQKGR+d8+LpNBjFNFfVvQHduiCgO7Fi7RFDriDRbRuEWn2bKarkbBX3jmK/PduHx/Q8Qn7yY2epsvGxkGXh4053WLCPhUNMv6u/maKNjXeutaVdFvEwFNVvMgR39SRv/0yyos13HJ62GSOeBHNN/aTE8k2ijLU5X/rFeJFFDS4iOdVaKpE48O54L6zCRE2Wjai8oR9HW1q7GxuiYZDrL8dza4w5pumZIkygMPrXCYj/ZujehDsPOsE9CJeOBWPFliTPuIKt6TZtbqXZtl0+mBzcXUvb6pEJU8b1W4aaeZBzLvlbBGzXDjn5bvxMDCBJmo+cobRUzzhQ5rQVAkGTZWYYuZGkz3o+48/quJFEEZzdGbiKDbJPPJsOdujuWEjQTT0O0cPYzgdJk6V6HRO5GfWAhY+l1bA4MLiVXiSKj9VAhk2NxT1emQ5L3o5mjOvlZOeXQhdVf1Beba5DAsrFKvC0c9OvYiXVkcUi5faTHStGqwFu/C/RAezUI1EC4NxijaAeJ0ifBQAoUmqIF7lDYJ9kUmvD4tuaHnnwtFnhwCI1+mOJYjX6fKHq9cwARCvGh48MB0I6JkAiJeeRx/6DgRqmACIVw0PHpgOBPRMAMRLz6MPfQcCNUwAxKuGBw9MBwJ6JgDipefRr7zv5JWBo/hATjGcyhuDM4FAJQRAvCqhVvVz0MuPsrITVW+/sgavuyal6jd5TTRblt3tnXk7y/0VykCXSwyOlxEA8ZLBOL3N2hOvqrCCMtBVwajXRnQjXtbIAbe36EvsMCzHsczmtE14BZiyT6/vHKRZLsOx6b31afSKNn73d5Njdjb30hy7t+ib3U5zXHrbJ76RQlk9uKUMxzI7CZesdjM+t+zK0ariJb1dmFM5GleecPVszU0exaYOAz2DUs0ugr5yY0MoNu3Z6KNlFb/w65AlV45WVhPLvgZAmh0MXzlaETYWMJhORoNbQ+3JmYmjePBobsBtyqttX6iSKizAoVdZKq3fehKvTCa96UE6YxpeT3N70/wCaKbhyOL0sN1qpmmrI7LDspsuVCCHHN7kuJ1pm9WzyWbYTY/VNr3NMhEbwkp7tll2JzJsN9NmmytxgN7lllVDqOBdbso2sO/PrYyqqOsgVo5uScZC3KOBQVR8omHQO8HO2PhqE2RLz37cm+ppsRgpy5WurejUVnf2HZpKKkcXCRtVcl4FDaaTqJKEY9BYRxioe35lnbJC4gVloEv7Euv1KF2JF7OItYcg0Ju9qnXpUa0VdvU2yYvXAdIqenqP25mmCQL5briWvS3CcDs+sS4Eqs/CphPoHOFTgXiJp0o/C5cAQ+K1L1TUIVChG6EQMznin2LcdNYOy5CXnRErheEyh2yZlaPLEq/CBiPxyhYao6452Whf7rqNBcVLwgFbQEBBQE/ixWsQRnA7keY2Xfz3nHZENvdQ2Ch8eIVCntcBWp0WFVfFlaPMswf4HFQ5WvERG1MArnRH4ULMKGzcsImRl6F1Iz6VaqsjiKboo9zyMklUOUvMqaOwsdzK0WWJV2GDUdiYNZi0DckLq2I8IF6V3iX6Pk9f4pV1lyTxQssJsduzt2kcYJGOdU5FvLY9JoKQiZe8cvR7un9UtQBPTcgVr3rLVjIoildwV1iUSGmUagmwYypHv7t4YYNBvJTDAXuqQEDv4oUcLFkNe/PsXuY48SLQYmlMREz4qwzC+60cjcJGyYdq6TlMevH6PSRaUdHfKkvSy01TFa9jKkdfd02wBaoDKnNeRcNG8LzkYwHb1SGgd/HCmSy+CjRBWnEZ6GPFCyfsuYNV320rTVvtDk9kfVFeXaoqOa/ChZhxwj42Gr5ipE0t4ZkpNiwm7M19h/Gp50PmTiN1uZke7OlL9mSlTFW8jqkcjVb6iQ25TSSpqBytFK/CBhfxvCosA12dex9aqXECuhcvgrL51g9QFWiG2Vn1zW4KmfycnFdO2IhGHE2V2GZQnoxjmb3NhMeazZPjLFlG8N/e6e6QZh7kVI5GYeOWs2tjbgqtQT3TlztVoisVnjiKh9jY5P7MQPhKtqi0qngdVzm6vinML9mdFNY0InDiP69ytFiPnyhgcBHxqrAM9DthhZPPCgHdiNdZGTCCQOKFk1xnp0vQEyBQAQEQrwqgne4pIF6nyx+urhUCIF5aGYmS7QDxKhkVHHimCYB4nenhhc4BgbNLAMTr7I4t9AwInGkCpy9eZxovdA4IAIH3RQDE632RhXaBABB4rwRAvN4rXmgcCACB90VAC+KFXn1Gkz23I7dRMRr4AAEgAASOJ6AF8UJWkrRrPS0vNHO86XAEEAACeiagFfHiS88Ixf70PCDQdyAABEojoCHx8mxz2WqBpRkPRwEBIKBfAtoRL8q1zaUX7fodCug5EAAC5RDQjnihMlncQcIh1TEupx9wLBAAAjojoCHxIkyOBIOLMVe9prLOBhW6CwT0QEBD4gWelx5uOOgjEKgWAe2IV+GcF0mhdRBl1f6q1XloBwgAgdoloB3xMhV62oiWI8tk8AI+tcsZLAcCQKDKBDQkXr4dTnWeF+XZ5jLsugNcryqPPTQHBGqagFbEi6TRKtaypVyzVNECsZmDWWt2B2wAASAABAhCC+JV/N1G+yKTXpcvzgPDBgSAABDQhnjBOAABIAAEyiagBc+rbKPhBCAABIAAiBfcA0AACNQkARCvmhw2MBoIAAEQL7gHgAAQqEkCIF41OWxgNBAAAloSL3o4scOwXIbbHIYJqXBrAgEgUJyAhsTLFmEyTOI2vMRYfMTgr0AACGAC2hEvNJMefC64LYEAECiRgJbEax3Eq8RRg8OAABDQxOtB/DCg4hEcvH4N9yQQAAKlEdCK50Wa0dJne9Pm0syGo4AAENA7AS2Il8m3k8lkMtxBxE7pfTyg/0AACJRIQAvihUylwPMqccTgMCAABDABrYgXQUDOC25JIAAEyiCgIfFywNPGMgYODgUCeiegJfGCeV56vxuh/0CgDALaES+06CzMsC9j6OBQIKBvAhoSL0J6t9EF7zbq+7aE3gOB4wloSbyOtxaOAAJAAAgIBEC84FYAAkCgJgmAeNXksIHRQAAInL54Wa2wJCPch0AACJRNAMSrbGRwAhAAAlogAOKlhVEAG4AAECibgN7Eyzy9x+3NFqxdYfJsc8yivWyMNX5CvWUrPhFtOYleNHaPso96rp/EpeAaZ5yA3sTL5JhdjThMhUa1OuJl6tqPj7rrC13kdPaTbUNsbKBf9eKGJr+7Z8So+reSdxq7dpMhTvbfoatJebJcvOgrXcmAl4kFufjU4cyA35w3va9u0Del2oiyWdijQwJ6E69jhlin4nUMlRL/TF5ubuxssW3FQ7vOls7mRsv5OuWZcvHqd41tOG0jbfR1sznsn+DiY/dyBBTES8kP9kgE9CNeNF81LJPJ5IWNpNWzupfmMlx6b3V6cSc/bCRNNG2i8nwCCaDalprnRbXYUuFJNhlio96NoZZG4TzS7Q8y/r7lmQkmNnU05wzLvA/SaI76vUfxEBef3PW2dxqy16L84eC+0+x2jx1it2XfiX0cY2vU70F7ksGjOWfUJlhNXXPKHSK0Pddl4RsztG4IvlJ+2FjA4LoRf/DI1+X3eZhYkI16ltsasmahDYM5FQ89787ZSZosSdT3IBMe8DvH1MPG8+3Pk6GtbjloEK8ctPBLHgH9iBffcUXOi0SvVKa3p+1ms3V4cY/LZHJzXrhSIrde1mJsxvaNuYFBedh4vnUjFtx3t3YaKUtbz248+LyHr7tIuv0hLumNIs2qu9ztPIo5R85jU+vNyejUrtty3URdbjY/nJlivGaxViPlD4fYmHerj6YNddT5psEr2GNpsS0PWfpbjLTReL174DDufdgsDXexsFGZ8ypoMBIvLu6JmhsIoq6zb4yNOvolVVUVr6aHcyHGb7tuoixtfbvxEKea8zLadpNTySs5ztotl/d5n6jzUldgCwggAroXL3siLbliaAWjKoiX4tZCsVJsYFD8kl93TXBzN7Dvg8Ur0C5+QbebewIAABhQSURBVOnlaJB3W+ieMVY4BjVHmvuY+NCI0AIWr0A7rbiQbIcxPJeVSNxCkZyXQrwKG4zEi/VbBBk1du3GPWF5ClHpeZn7mGT2mLp+76SaeJH93gk2fKNT1gHYBALFCehdvCjPdoZddYjBCu1ThI3F+ZX2107nBBvuuiwejOK4OK9lOGx0Z1WI8s8E+RR1v3cqP9ZLjvmFlBAKGw+douKJzRL1jffcozhsFBLn+0NSDqksz6uwwThsdLcIwM63P49PyP07ZdhIXRvlZA8KkCjne17IgzuKDrklY7Ndgg0gUJAAiNc2JxMv0wmKF462kHgdZbWAQC4Vgx/S9XunWH+rGCfmjR/OecmECf+5rt89yc45RpobsLIYw+FgdcULG1yJeLExR/YpZ2N3nnjVWXpGmejoveacgDGvw/ArEFAS0Lt4EfZEmtvxiYGPfZHJCxsJlLCn33EZ78JRGA4bwzbB9TK0JGOysDEvnSSNnqp4oThxt0+UO0NLKhbKFa8BVnD3pIaErTLDRkltS/C8CBTwjt7jE3kEgUJmyfOqs3Q7mdiov1zlIin0GEX0lxX9gR26IKB78SJtkQPuYBGtW0SaPZvpaiTslXeOIv+928fHSHzCfnKjp+mysXHQ5WFjTreYsE9Fg4y/q7+Zok2Nt651Jd0WMfBUFS9yxDd15G+/jPJiDbecHjaZI15E84395ESyjaIMdfnfeoV4EQUNLuJ5FZoq0fhwLrjvbEKEjZaNqJSwv9ztZOITyWtNnc2N/H+X1WZXKHGi9Q4yGenfHOURsEcHBPQiXjgVjxZYkz7iCrek2bW6l2bZdPpgc3F1L2+qRCVPG9XuG2nmQcy75WwRs1w45+W78TAwwSZDR4+cYfQUT/iQJjRVgkFTJaaYudFkD/r+44+qeBGE0RydmTiKTTKPPFvO9mhu2EgQDf3O0cMYToeJUyU6nRP5mbWAhc+lFTC4sHgVnqTKT5VAhs0NRb0eMefFC3fOvFa5qyj0Ve0H5dnmMiysUKzGRkf79CJeWh1SLF5qM9G1arAW7ML/Eh3MQjUSLQzGKdoA4nWK8NEUCDRJFcSrvEGwLzLp9WHRDS3vXDj67BAA8TrdsQTxOl3+cPUaJgDiVcODB6YDAT0TAPHS8+hD34FADRMA8arhwQPTgYCeCYB46Xn0oe9AoIYJgHjV8OCB6UBAzwRAvPQ8+pX3nbwycBQfyCmGU3ljcCYQqIQAiFcl1Kp+Dnr5UVZ2ourtV9bgddekVP0mr4lmy7K7/R0r2EAZ6Dyo8GtZBEC8ysL1vg6uPfGqBgkoA10NivptQzfiZY0ccHuLvsQOw3Icy2xO24S3kyn79PrOQZrlMhyb3lufRq9oo6nvw5scs7O5l+bYvUXf7Haa49LbPvGNFMrqwS1lOJbZSbhktZvxuWVXjlYVL+ntwpzK0bjyhKtna27yKDZ1GOgZlJXBoq/c2BCKTXs2+mhZxS/8OmTJlaOV1cSyrwGQZgfDV45WhI0FDKaT0eDWUHtyZuIoHjyaG3Cb1KrfQBlo/apQhT3Xk3hlMulND9IZ0/B6mtub5hdAMw1HFqeH7VYzTVsdkR2W3XShAjlIvLidaZvVs8lm2E2P1Ta9zTIRG+JMe7ZZdicybDfTZpsrcYDe5ZYVaqjgXW7KNrDvz62MqqjrIFaObknGQtyjgUFUfKJh0DvBztj4ahNkS89+3JvqabEYKcuVrq3o1FZ39h2aSipHFwkbVXJeBQ2mk6iShGPQWEcYqHv+AnXKoAx0hV9h/Z6mK/FiFrH2EAR6s1e1Lj2qtcKu3iZ58TpAWkVP73E70zRBIN8N17K3RRhuxyfWhSDI4XU2nUDnCJ8KxEs8VfpZuAQYEq99oaIOgQrdCIWYyRH/FOOms3ZYhrzsjFgpDJc5ZMusHF2WeBU2GIlXttAYdc3JRvsU6zZCGWhp6GGrRAJ6Ei9egzCY24k0t+niv+e0I7K5h8JG4cMrFPK8DtDqtKi4Kq4cZZ49wOegytGKj9hYidiPP6xwIWYUNm7YxMjL0LoRn0q11RFEU/RRTnkZVOvmUY+YU0dhY7mVo8sSr8IGo7AxazBpG5IXVsUgoAz08fcDHKEkoC/xyrpLknih5YTY7dnbNA6wSMc6pyJe2x4TQcjES145Wsm0KntUtQBPTcgVr3rLVjIoildwV1iUSGmCagmwYypHv7t4YYOLixeUgVYOFuwpiYDexQs5WLIa9ubZvcxx4kWgxdKYiJjwV8H8fitHo7BR8qFaeg6TXrx+D4lWVPS3ypL0ctNUxeuYytHXXROstLKRvDVCmfMqGjYW8rwqLQOdYwv8olMCehcvnMniq0ATpBWXgT5WvHDCnjtY9d220rTV7vBE1hfl1aWqkvMqXIgZJ+xjo+ErRtrUEp6ZYsNiwt7cdxifej5k7jRSl5vpwZ6+ZE9WylTF65jK0Wiln9iQ20SSisrRSvEqbHBBz6viMtA6/bJCt3MJ6F68CMrmWz9AVaAZZmfVN7spZPJzcl45YSMCiKZKbDMoT8axzN5mwmPN5slxliwj+G+5sMv8TZp5kFM5GoWNW86ujbkptAb1TF/uVImuVHjiKB5iY5P7MwPhK9mi0qridVzl6PqmML9kd1JY04jAif+8ytFiPX6igMGFxKvyMtBlgoTDzyYB3YjX2Rk+JF44yXV2ugQ9AQIVEADxqgDa6Z4C4nW6/OHqWiEA4qWVkSjZDhCvklHBgWeaAIjXmR5e6BwQOLsEQLzO7thCz4DAmSZw+uJ1pvFC54AAEHhfBEC83hdZaBcIAIH3SgDE673ihcaBABB4XwS0IF7o1Wc02XM7chsVo4EPEAACQOB4AloQL2QlSbvW0/JCM8ebDkcAASCgZwJaES++9IxQ7E/PAwJ9BwJAoDQCGhIvzzaXrRZYmvFwFBAAAvoloB3xolzbXHrRrt+hgJ4DASBQDgHtiBcqk8UdJBxSHeNy+gHHAgEgoDMCGhIvwuRIMLgYc9VrKutsUKG7QEAPBDQkXuB56eGGgz4CgWoR0I54Fc55kRRaB1FW7a9anYd2gAAQqF0C2hEvU6GnjWg5skwGL+BTu5zBciAABKpMQEPi5dvhVOd5UZ5tLsOuO8D1qvLYQ3NAoKYJaEW8SBqtYi1byjVLFS0QmzmYtWZ3wAYQAAJAgCC0IF7F3220LzLpdfniPDBsQAAIAAFtiBeMAxAAAkCgbAJa8LzKNhpOAAJAAAiAeME9AASAQE0SAPGqyWEDo4EAEADxgnsACACBmiQA4lWTwwZGAwEgoCXxoocTOwzLZbjNYZiQCrcmEAACxQloSLxsESbDJG7DS4zFRwz+CgSAACagHfFCM+nB54LbEggAgRIJaEm81kG8Shw1OAwIAAFNvB7EDwMqHsHB69dwTwIBIFAaAa14XqQZLX22N20uzWw4CggAAb0T0IJ4mXw7mUwmwx1E7JTexwP6DwSAQIkEtCBeyFQKPK8SRwwOAwJAABPQingRBOS84JYEAkCgDAIaEi8HPG0sY+DgUCCgdwJaEi+Y56X3uxH6DwTKIKAd8UKLzsIM+zKGDg4FAvomoCHxIqR3G13wbqO+b0voPRA4noCWxOt4a+EIIAAEgIBAAMQLbgUgAARqkgCIV00OGxgNBIDA6YuX1QpLMsJ9CASAQNkEQLzKRgYnAAEgoAUCIF5aGAWwAQgAgbIJ6E28zNN73N5swdoVJs82xyzay8ZY4yfUW7biE9GWk+hFY/co+6jn+klcCq5xxgnoTbxMjtnViMNUaFSrI16mrv34qLu+0EVOZz/ZNsTGBvpVL25o8rt7Royqfyt5p7FrNxniZP8dupqUJ8vFq7GtZys8cRQPcckpJjwUvtKQe3zdoG9KtZHcw+A3nRLQm3gdM8w6Fa9jqJT4Z/Jyc2Nni20rHtp1tnQ2N1rO1ynPlIsX3dYV7m7tNzd1trTc83rZ+Jg/558VEC8lP9gjEdCPeNF81bBMJpMXNpJWz+pemstw6b3V6cWd/LCRNNG0iSpryr+a50W12FLhSTYZYqPejaGWRmEISLc/yPj7lmcmmNjU0ZwzbJauRBrNUb8XOSbxyV1ve6chO2yUPxzcd5rd7rHDWJCLT+07sY9jbI36PWhPMng054zaBKupa065Q4S257osfGOG1g3BV8oPGwsYXDfiDx75uvw+DxMLslHPcluuu2Qwp+Kh5905O0mTJYn6HmTCA37nmHrYiC3ZuiZ1nyBAvLIjDhsqBPQjXnznFTkvEr1Smd6etpvN1uHFPS6Tyc154UqJ3HpZi7EZ2zfmBgblYeP51o1YcN/d2mmkLG09u/Hg8x6+7iLp9oe4pDeKNKvucrfzKOYcOY9NrTcno1O7bst1E3W52fxwZorxmsVajZQ/HGJj3q0+mjbUUeebBq/gkK/Ftjxk6W8x0kbj9e6Bw7j3YbM05MXCRmXOq6DBSLy4uCdqbiCIus6+MTbq6JdUlSBUxKvp4VyI8duumyhLW99uPMQpc16Ghus9zqO4NywzmCCIWy7v8z5R56WuwBYQQAR0L172RFpyxdAKRlUQL8WthWKl2MCg+CW/7prg5m5g3weLV6Bd/ILSy9Eg77bQPWOscAxqjjT3MfGhEaEFLF6BdlpxIdkOY3guK5G4hSI5L4V4FTYYiRfrtwgyauzajXvC8lhPKV7mPiaZPaau3zuZI17o0jhTFvNE83Nest7AJhBQENC7eFGe7Qy76hCDFdqnCBsVyCrY0emcYMNdl8UzURwX57UMh43urApR/pkgn6Lu907lx3rJMb+QU0dh46FTVDyxWaK+8Z57FIeNQuJ8f0hKwpfleRU2GIeN7hYB2Pn25/EJuX+n9Lyoa6Oc7EEBEuUcz4ukTY0o5+X2HEWH3vWhQRYFbOiAAIjXNicTL9MJiheOtpB4HWW1gEAuFYMf0vV7p1h/qxgn5t2JOOclEyb857p+9yQ75xhpbsDKYgyHg9UVL2xwJeLFxhzZp5yN3Xnile2aMTwXOuSTd9l9sAEEChPQu3gR9kSa2/GJgY99kckLGwmUsKffcRnvwlEYDhvDNsH1MrQkY7KwMS+dJI2iqnihOHG3T5Q7Q0sqFsoVrwFWcPekhoStMsNGSW1L8LwIFPCO3uMTeQSBQuYczytrTCNKjblp0QnO7lfbICn0GKWkQ9VOh31ngoDuxYu0RQ64g0W0bhFp9mymq5GwV94Zivz3bh8f0PEJ+8mNnqbLxsZBl4eNOd1iwj4VDTL+rv5mijY13rrWlXRbxMBTVbzIEd/Ukb/9MsqLNdxyethkjngRzTf2kxPJNooy1OV/6xXiRRQ0uIjnVWiqROPDueC+swkRNlo2otmEPTXicoS7zbfMTZ1m8z23h01OJq+ozK5Q4kTrHWQy0r85yiNgjw4I6EW8cCoeLbAmfcQVbkmza3UvzbLp9MHm4upe3lSJSp42qt030syDmHfL2SJmuXDOy3fjYWCCTYaOHjnD6Cme8CFNaKoEg6ZKTDFzo8ke9P3HH1XxIgijOTozcRSbZB55tpzt0dywkSAa+p2jhzGcDhOnSnQ6J/IzawELn0srYHBh8So8SZWfKoEMmxuKej1izou8NTT0fG4ST1INMmhuhzFfVYX+5v+gPNtchoUVivO56Ox3vYiXVocVi5faTHStGqwFu/C/RAezUI1EC4NxijaAeJ0ifDQFAk1SBfEqbxDsi0x6fVh0Q8s7F44+OwRAvE53LEG8Tpc/XL2GCYB41fDggelAQM8EQLz0PPrQdyBQwwRAvGp48MB0IKBnAiBeeh596DsQqGECIF41PHhgOhDQMwEQLz2PfuV9J68MHMUHcorhVN4YnAkEKiEA4lUJtaqfg15+lJWdqHr7lTV43TUpVb/Ja6LZsuxu78zbWeavUAa6TGBweA4BEK8cHKf1S+2JVzVIQRnoalDUbxu6ES9r5IDbW/QldhiW41hmc9omvEdH2afXdw7SLJfh2PTe+jR6RRtNfR/e5Jidzb00x+4t+ma30xyX3vaJb6RQVg9uKcOxzE7CJavdjM8tu3K0qnhJbxfmVI7GlSdcPVtzk0exqcNAz6BUs4ugr9zYEIpNezb6aFnFL/w6ZMmVo5XVxLKvAZBmB8NXjlaEjQUMppPR4NZQe3Jm4igePJobcJvU3r6GMtD6VaEKe64n8cpk0psepDOm4fU0tzfNL4BmGo4sTg/brWaatjoiOyy76UIFcpB4cTvTNqtnk82wmx6rbXqbZSI2xJn2bLPsTmTYbqbNNlfiAL3LLXuluIJ3uSnbwL4/tzKqoq6DWDm6JRkLcY8GBlHxiYZB7wQ7Y+OrTZAtPftxb6qnxWKkLFe6tqJTW93Zd2gqqRxdJGxUyXkVNJhOokoSjkFjHWGg7vnV6pRBGegKv7+6Pk1X4sUsYu0hCPRmr2pdelRrhV29TfLidYC0ip7e43amaYJAvhuuZW+LMNyOT6wLQZDD62w6gc4RPhWIl3iq9LNwCTAkXvtCRR0CFboRCjGTI/4peT0sy5CXnRErheEyh2yZlaPLEq/CBiPxyhYao6452WiftG4jlIGWxhy2yiOgJ/HiNQjzuZ1Ic5suXm9oR2RzD4WNwodXKOR5HaDVaVFxVVw5yjx7gM9BlaMVH7Gx8ugXObpwIWYUNm7YxMjL0LoRn0q11RFEU/RRzrKJqNbNox4xp47CxnIrR5clXoUNRmFj1mDSNiQvrEoQUAa6yF0AfypGQF/ilXWXJPFCywmx27O3aRxgkY51TkW8tj0mgpCJl7xydDG67/A3VS3AUxNyxavespUMiuIV3BUWJVJeWLUE2DGVo99dvLDBxcUrayqUgc6igI2SCOhdvJCDJathb57dyxwnXgRaLI2JiAl/Fczvt3I0ChslH6ql5zDpxev3kGhFRX+rLEkvN01VvI6pHH3dNcFKKxvJWyOUOa+iYWMRzyvbbDlloLMnwYaOCehdvHAmi68CTZBWXAb6WPHCCXvuYNV320rTVrvDE1lflFeXqkrOq3AhZpywj42GrxhpU0t4ZooNiwl7c99hfOr5kLnTSF1upgd7+pI9WSlTFa9jKkejlX5iQ24TSSoqRyvFq7DBhTyvystA6/gLC12XCOhevAjK5ls/QFWgGWZn1Te7KWTyc3JeOWEjgoemSmwzKE/GsczeZsJjlfL1KEuWEfw3CXQFW9LMg5zK0Shs3HJ2bcxNoTWoZ/pyp0p0pcITR/EQG5vcnxkISyshqorXcZWj65vC/JLdSWFNIwIn/vMqR4v1+IkCBhcSr8rLQFcAE045ewR0I15nZ+iQeOEk19npEvQECFRAAMSrAminewqI1+nyh6trhQCIl1ZGomQ7QLxKRgUHnmkCIF5nenihc0Dg7BIA8Tq7Yws9AwJnmsDpi9eZxgudAwJA4H0RAPF6X2ShXSAABN4rARCv94oXGgcCQOB9EdCCeKFXn9Fkz+3IbVSMBj5AAAgAgeMJaEG8kJUk7VpPywvNHG86HAEEgICeCWhFvPjSM0KxPz0PCPQdCACB0ghoSLw821y2WmBpxsNRQAAI6JeAdsSLcm1z6UW7focCeg4EgEA5BLQjXqhMFneQcNCy+gzl9ASOBQJAQFcENCRehMmRYHAx5qrXVNbVkEJngYA+CGhIvMDz0sctB70EAtUhoB3xgpxXdUYUWgECOiGgHfEywdNGndxz0E0gUBUCGhIv3w4H87yqMqjQCBDQAwGtiBdJo1WsZUu56gE+9BEIAIHKCWhBvODdxsrHD84EAroloAXx0i186DgQAAKVEwDxqpwdnAkEgMApEgDxOkX4cGkgAAQqJ1BMvBYKfM7DBwgAASBw2gSOEa//bvzvvP8WFhZO22a4PhAAAkDg/PHi9UH9B/L/FhYWKvfz4EwgAASAQJUIHCte1ODP+GXpDPujo+6D+g9AvKpEHpoBAkDgnQgcK17/jdyuDwd/4UC83gk0nAwEgEB1CYB4VZcntAYEgMAJEQDxOiHQcBkgAASqSwDEq7o8oTUgAAROiACI1wmBhssAASBQXQIgXtXlCa0BASBwQgRAvE4INFwGCACB6hIA8aouT2gNCACBEyIA4nVCoOEyQAAIVJcAiFd1eUJrQAAInBABEK8TAg2XAQJAoLoEjhUv6k6KzaBPGt5trC56aA0IAIF3IXCseOF3G2WFJeDF7HfBDecCASBQLQLHixfU84LKSUAACGiQwDHipVpLVYPdAJOAABDQG4Fi4lUt7w7aAQJAAAhUnQCIV9WRQoNAAAicBAEQr5OgDNcAAkCg6gRAvKqOFBoEAkDgJAiAeJ0EZbgGEAACVScA4lV1pNAgEAACJ0Hg/wFj3gjpsgtymAAAAABJRU5ErkJggg==;" vertex="1" parent="1">
                    <mxGeometry y="76" width="330.28" height="224" as="geometry"/>
                </mxCell>
            </root>
        </mxGraphModel>
    </diagram>
</mxfile>